<svg xmlns="http://www.w3.org/2000/svg" width="207.947" height="94.638" viewBox="0 0 207.947 94.638">
  <g id="Group_53" data-name="Group 53" transform="translate(-215.248 -188.447)">
    <g id="Group_33" data-name="Group 33" transform="translate(215.248 188.447)">
      <g id="Group_32" data-name="Group 32">
        <path id="Path_13" data-name="Path 13" d="M324.681,235.5a27.8,27.8,0,0,1,0-38.447,27.83,27.83,0,1,0,0,38.447Z" transform="translate(-247.72 -188.447)" fill="#fff"/>
        <path id="Path_14" data-name="Path 14" d="M378.327,235.5a27.8,27.8,0,0,0,40.225,0,27.8,27.8,0,0,1,0-38.447,27.8,27.8,0,0,0-40.225,0,27.8,27.8,0,0,1,0,38.447Z" transform="translate(-301.366 -188.447)" fill="#bb9256"/>
        <ellipse id="Ellipse_21" data-name="Ellipse 21" cx="7.717" cy="19.224" rx="7.717" ry="19.224" transform="translate(69.244 8.606)" fill="#a1884e"/>
        <path id="Path_15" data-name="Path 15" d="M463.562,235.5a27.83,27.83,0,1,0,0-38.447,27.8,27.8,0,0,1,0,38.447Z" transform="translate(-346.376 -188.447)" fill="#ef9740"/>
        <ellipse id="Ellipse_22" data-name="Ellipse 22" cx="7.717" cy="19.224" rx="7.717" ry="19.224" transform="translate(109.469 8.606)" fill="#de7f20"/>
        <g id="Group_31" data-name="Group 31" transform="translate(0 69.766)">
          <g id="Group_30" data-name="Group 30">
            <g id="Group_18" data-name="Group 18" transform="translate(0 0.344)">
              <path id="Path_16" data-name="Path 16" d="M226.209,346.888l-.2-.068,4.295-4.871a1.618,1.618,0,0,0,.452-1.14v-2.937a.908.908,0,0,0-.212-.622.67.67,0,0,0-.522-.242H217.028a.642.642,0,0,0-.5.242.908.908,0,0,0-.211.622v3.247a.928.928,0,0,0,.211.606.627.627,0,0,0,.5.259h7.853l-4.633,4.8a1.516,1.516,0,0,0-.452,1.175v1.934a.925.925,0,0,0,.212.6.625.625,0,0,0,.494.26h3.136q2.938,0,2.938,2.765a2.8,2.8,0,0,1-3.051,3.04q-2.516,0-3.08-1.8a1.235,1.235,0,0,0-.367-.519.872.872,0,0,0-.508-.138h-3.7a.567.567,0,0,0-.438.207.752.752,0,0,0-.184.519,6.614,6.614,0,0,0,.946,3.092,7.027,7.027,0,0,0,2.74,2.573,9.281,9.281,0,0,0,4.591,1.036,9.519,9.519,0,0,0,4.265-.932,7.128,7.128,0,0,0,2.967-2.66,7.5,7.5,0,0,0,1.073-4.043,7.152,7.152,0,0,0-1.511-4.889A6.683,6.683,0,0,0,226.209,346.888Z" transform="translate(-215.248 -337.008)" fill="#062d57"/>
            </g>
            <g id="Group_19" data-name="Group 19" transform="translate(20.75 0.344)">
              <path id="Path_17" data-name="Path 17" d="M274.755,355.975h-8.814l8.842-13.577a2.209,2.209,0,0,0,.367-1.175v-3.351a.952.952,0,0,0-.2-.622.63.63,0,0,0-.508-.242H260.178a.643.643,0,0,0-.5.242.908.908,0,0,0-.211.622v3.421a.924.924,0,0,0,.211.6.628.628,0,0,0,.5.259h8.559l-9.1,13.543a1.9,1.9,0,0,0-.424,1.243v3.351a1.021,1.021,0,0,0,.2.639.611.611,0,0,0,.509.26h14.831a.669.669,0,0,0,.522-.242.908.908,0,0,0,.211-.622v-3.455a.981.981,0,0,0-.211-.639A.651.651,0,0,0,274.755,355.975Z" transform="translate(-259.217 -337.008)" fill="#062d57"/>
            </g>
            <g id="Group_20" data-name="Group 20" transform="translate(42.135 0.344)">
              <path id="Path_18" data-name="Path 18" d="M318.656,356.216h-9.238v-4.8h8.39a.614.614,0,0,0,.509-.26.97.97,0,0,0,.2-.6v-3.005a1.033,1.033,0,0,0-.2-.64.612.612,0,0,0-.509-.258h-8.39v-4.664h9.012a.615.615,0,0,0,.508-.259.973.973,0,0,0,.2-.606v-3.247a.952.952,0,0,0-.2-.622.63.63,0,0,0-.508-.242H305.237a.641.641,0,0,0-.495.242.908.908,0,0,0-.211.622v22.456a.925.925,0,0,0,.211.6.625.625,0,0,0,.495.26h13.419a.615.615,0,0,0,.509-.26.97.97,0,0,0,.2-.6v-3.247a.959.959,0,0,0-.2-.623A.631.631,0,0,0,318.656,356.216Z" transform="translate(-304.531 -337.008)" fill="#062d57"/>
            </g>
            <g id="Group_22" data-name="Group 22" transform="translate(62.306 0.344)">
              <g id="Group_21" data-name="Group 21">
                <path id="Path_19" data-name="Path 19" d="M360.013,351.587a6.405,6.405,0,0,0,2.57-2.59,8.413,8.413,0,0,0,.933-4.111,7.18,7.18,0,0,0-7.854-7.878h-7.683a.641.641,0,0,0-.495.242.908.908,0,0,0-.211.622v22.456a.925.925,0,0,0,.211.6.625.625,0,0,0,.495.26h3.644a.668.668,0,0,0,.522-.242.908.908,0,0,0,.212-.622v-7.67h2.882l3.22,7.6a1.2,1.2,0,0,0,1.159.933h3.757a.525.525,0,0,0,.41-.225.767.767,0,0,0,.184-.5,1.011,1.011,0,0,0-.085-.38Zm-2.43-4.612a2.482,2.482,0,0,1-1.977.778h-3.249V341.81h3.249a2.422,2.422,0,0,1,1.992.813,3.365,3.365,0,0,1,.664,2.194A3.176,3.176,0,0,1,357.583,346.975Z" transform="translate(-347.272 -337.008)" fill="#062d57"/>
              </g>
            </g>
            <g id="Group_24" data-name="Group 24" transform="translate(83.211)">
              <g id="Group_23" data-name="Group 23">
                <path id="Path_20" data-name="Path 20" d="M406.542,338.747a9.111,9.111,0,0,0-12.473,0,10.344,10.344,0,0,0-2.472,7.031q-.028,1-.028,3.005,0,1.969.028,2.972.141,4.629,2.429,7.012a9.443,9.443,0,0,0,12.544,0q2.287-2.384,2.429-7.012.057-2,.056-2.972,0-1-.056-3.005Q408.886,341.216,406.542,338.747Zm-2.8,12.8a5.74,5.74,0,0,1-.975,3.489,3.008,3.008,0,0,1-2.471,1.14,2.968,2.968,0,0,1-2.458-1.14,5.93,5.93,0,0,1-.989-3.489q-.028-1-.028-2.833,0-1.867.028-2.834a5.857,5.857,0,0,1,1-3.488,2.979,2.979,0,0,1,2.445-1.141,3.019,3.019,0,0,1,2.457,1.141,5.669,5.669,0,0,1,.989,3.488q.057,1.937.057,2.834Q403.8,349.543,403.745,351.548Z" transform="translate(-391.569 -336.278)" fill="#062d57"/>
              </g>
            </g>
            <g id="Group_25" data-name="Group 25" transform="translate(113.579)">
              <path id="Path_21" data-name="Path 21" d="M469.14,337.3a9.6,9.6,0,0,0-4.463-1.018,8.245,8.245,0,0,0-6.272,2.435,10.144,10.144,0,0,0-2.457,6.926q-.028.969-.028,3.109,0,2.108.028,3.041.142,4.56,2.415,6.96a8.275,8.275,0,0,0,6.314,2.4,9.6,9.6,0,0,0,4.463-1.019,7.72,7.72,0,0,0,3.122-2.9,8.5,8.5,0,0,0,1.172-4.4.661.661,0,0,0-.155-.519.571.571,0,0,0-.438-.207h-3.813a.831.831,0,0,0-.594.19,1.418,1.418,0,0,0-.311.708,4.155,4.155,0,0,1-1.215,2.436,3.37,3.37,0,0,1-2.259.743q-3.334,0-3.447-4.561-.028-1-.028-2.935t.028-2.867q.113-4.562,3.447-4.561a3.365,3.365,0,0,1,2.231.709,4.392,4.392,0,0,1,1.243,2.47,1.584,1.584,0,0,0,.339.708.785.785,0,0,0,.565.19h3.813a.562.562,0,0,0,.41-.19.647.647,0,0,0,.183-.466V344.6a8.506,8.506,0,0,0-1.172-4.4A7.733,7.733,0,0,0,469.14,337.3Z" transform="translate(-455.919 -336.278)" fill="#062d57"/>
            </g>
            <g id="Group_26" data-name="Group 26" transform="translate(136.18 0.344)">
              <path id="Path_22" data-name="Path 22" d="M517.51,355.975h-8.56v-18.1a.95.95,0,0,0-.2-.622.629.629,0,0,0-.509-.242h-3.729a.641.641,0,0,0-.495.242.906.906,0,0,0-.211.622v22.456a.922.922,0,0,0,.211.6.625.625,0,0,0,.495.26H517.51a.615.615,0,0,0,.509-.26.97.97,0,0,0,.2-.6v-3.455a1.031,1.031,0,0,0-.2-.639A.615.615,0,0,0,517.51,355.975Z" transform="translate(-503.809 -337.008)" fill="#062d57"/>
            </g>
            <g id="Group_27" data-name="Group 27" transform="translate(154.627 0.344)">
              <path id="Path_23" data-name="Path 23" d="M559.085,337.008h-3.672a.643.643,0,0,0-.5.242.908.908,0,0,0-.211.622v14.062a5.438,5.438,0,0,1-.876,3.351,3.315,3.315,0,0,1-4.986.017,5.492,5.492,0,0,1-.861-3.369V337.872a.908.908,0,0,0-.211-.622.67.67,0,0,0-.523-.242H543.6a.641.641,0,0,0-.495.242.906.906,0,0,0-.211.622v14.1q0,4.8,2.245,7.185a9.257,9.257,0,0,0,12.4,0q2.246-2.384,2.246-7.185v-14.1a.95.95,0,0,0-.2-.622A.629.629,0,0,0,559.085,337.008Z" transform="translate(-542.898 -337.008)" fill="#062d57"/>
            </g>
            <g id="Group_29" data-name="Group 29" transform="translate(177.396 0.344)">
              <g id="Group_28" data-name="Group 28">
                <path id="Path_24" data-name="Path 24" d="M607.106,350.62a5.176,5.176,0,0,0-1.949-2.108,5.034,5.034,0,0,0,1.624-1.744,5.546,5.546,0,0,0,.72-2.92,6.944,6.944,0,0,0-1.737-5.061q-1.737-1.78-5.3-1.779h-8.616a.641.641,0,0,0-.495.242.908.908,0,0,0-.211.622v22.456a.925.925,0,0,0,.211.6.625.625,0,0,0,.495.26h8.87a7.034,7.034,0,0,0,5.312-1.934,7.449,7.449,0,0,0,1.864-5.39A6.668,6.668,0,0,0,607.106,350.62ZM596.23,341.5H599.9a2.147,2.147,0,0,1,1.723.691,2.71,2.71,0,0,1,.594,1.83,2.835,2.835,0,0,1-.594,1.883,2.12,2.12,0,0,1-1.723.708H596.23Zm5.735,14.371a2.169,2.169,0,0,1-1.808.829H596.23V351h3.926a2.189,2.189,0,0,1,1.808.811,3.188,3.188,0,0,1,.65,2.056A3.149,3.149,0,0,1,601.964,355.871Z" transform="translate(-591.145 -337.008)" fill="#062d57"/>
              </g>
            </g>
          </g>
        </g>
      </g>
    </g>
    <g id="Group_34" data-name="Group 34" transform="translate(412.989 259.081)">
      <path id="Path_25" data-name="Path 25" d="M637.987,338.119v.585h-1.5v4.925h-.72V338.7h-1.51v-.585Z" transform="translate(-634.255 -338.119)" fill="#072c56"/>
      <path id="Path_26" data-name="Path 26" d="M649.628,338.2v5.471h-.719v-4.079l-1.818,4.079h-.506l-1.826-4.087v4.087h-.719V338.2h.774l2.024,4.522,2.024-4.522Z" transform="translate(-639.422 -338.163)" fill="#072c56"/>
    </g>
  </g>
</svg>
