<svg xmlns="http://www.w3.org/2000/svg" width="236.319" height="107.551" viewBox="0 0 236.319 107.551">
  <g id="Group_1" data-name="Group 1" transform="translate(-215.248 -188.447)">
    <g id="Group_33" data-name="Group 33" transform="translate(215.248 188.447)">
      <g id="Group_32" data-name="Group 32">
        <path id="Path_13" data-name="Path 13" d="M331.222,241.92a31.595,31.595,0,0,1,0-43.693,31.627,31.627,0,1,0,0,43.693Z" transform="translate(-243.76 -188.447)" fill="#46a4a3"/>
        <path id="Path_14" data-name="Path 14" d="M378.327,241.92a31.6,31.6,0,0,0,45.713,0,31.595,31.595,0,0,1,0-43.693,31.6,31.6,0,0,0-45.713,0,31.595,31.595,0,0,1,0,43.693Z" transform="translate(-290.865 -188.447)" fill="#bb9256"/>
        <ellipse id="Ellipse_21" data-name="Ellipse 21" cx="8.77" cy="21.847" rx="8.77" ry="21.847" transform="translate(78.692 9.78)" fill="#a1884e"/>
        <path id="Path_15" data-name="Path 15" d="M463.562,241.92a31.627,31.627,0,1,0,0-43.693,31.595,31.595,0,0,1,0,43.693Z" transform="translate(-330.387 -188.447)" fill="#ef9740"/>
        <ellipse id="Ellipse_22" data-name="Ellipse 22" cx="8.77" cy="21.847" rx="8.77" ry="21.847" transform="translate(124.405 9.78)" fill="#de7f20"/>
        <g id="Group_31" data-name="Group 31" transform="translate(0 79.284)">
          <g id="Group_30" data-name="Group 30">
            <g id="Group_18" data-name="Group 18" transform="translate(0 0.392)">
              <path id="Path_16" data-name="Path 16" d="M227.7,348.236l-.225-.078,4.881-5.536a1.839,1.839,0,0,0,.513-1.3v-3.338a1.032,1.032,0,0,0-.241-.706.762.762,0,0,0-.594-.275H217.271a.729.729,0,0,0-.563.275,1.032,1.032,0,0,0-.24.706v3.69a1.055,1.055,0,0,0,.24.689.713.713,0,0,0,.563.294H226.2l-5.265,5.457a1.723,1.723,0,0,0-.514,1.335v2.2a1.052,1.052,0,0,0,.241.686.711.711,0,0,0,.562.295h3.564q3.339,0,3.339,3.142a3.182,3.182,0,0,1-3.467,3.454q-2.859,0-3.5-2.042a1.4,1.4,0,0,0-.417-.589.991.991,0,0,0-.578-.157h-4.206a.645.645,0,0,0-.5.235.855.855,0,0,0-.209.589,7.516,7.516,0,0,0,1.075,3.514,7.985,7.985,0,0,0,3.114,2.924,10.547,10.547,0,0,0,5.217,1.178,10.818,10.818,0,0,0,4.847-1.059,8.1,8.1,0,0,0,3.371-3.023,8.527,8.527,0,0,0,1.22-4.594,8.128,8.128,0,0,0-1.717-5.556A7.6,7.6,0,0,0,227.7,348.236Z" transform="translate(-215.248 -337.008)" fill="#062d57"/>
            </g>
            <g id="Group_19" data-name="Group 19" transform="translate(23.581 0.392)">
              <path id="Path_17" data-name="Path 17" d="M276.875,358.563H266.858l10.049-15.43a2.51,2.51,0,0,0,.417-1.335v-3.808a1.082,1.082,0,0,0-.225-.706.716.716,0,0,0-.578-.275H260.309a.731.731,0,0,0-.563.275,1.032,1.032,0,0,0-.24.706v3.888a1.051,1.051,0,0,0,.24.686.714.714,0,0,0,.563.294h9.727L259.7,358.249a2.157,2.157,0,0,0-.482,1.413v3.808a1.16,1.16,0,0,0,.225.726.7.7,0,0,0,.578.295h16.855a.76.76,0,0,0,.594-.275,1.032,1.032,0,0,0,.24-.706v-3.927a1.115,1.115,0,0,0-.24-.726A.74.74,0,0,0,276.875,358.563Z" transform="translate(-259.217 -337.008)" fill="#062d57"/>
            </g>
            <g id="Group_20" data-name="Group 20" transform="translate(47.884 0.392)">
              <path id="Path_18" data-name="Path 18" d="M320.583,358.837h-10.5V353.38h9.535a.7.7,0,0,0,.578-.3,1.1,1.1,0,0,0,.225-.686v-3.415a1.174,1.174,0,0,0-.225-.728.7.7,0,0,0-.578-.293h-9.535v-5.3h10.242a.7.7,0,0,0,.578-.294,1.106,1.106,0,0,0,.225-.689v-3.69a1.082,1.082,0,0,0-.225-.706.716.716,0,0,0-.578-.275H305.333a.728.728,0,0,0-.562.275,1.032,1.032,0,0,0-.24.706v25.52a1.051,1.051,0,0,0,.24.686.711.711,0,0,0,.562.295h15.25a.7.7,0,0,0,.578-.295,1.1,1.1,0,0,0,.225-.686v-3.69a1.09,1.09,0,0,0-.225-.708A.717.717,0,0,0,320.583,358.837Z" transform="translate(-304.531 -337.008)" fill="#062d57"/>
            </g>
            <g id="Group_22" data-name="Group 22" transform="translate(70.807 0.392)">
              <g id="Group_21" data-name="Group 21">
                <path id="Path_19" data-name="Path 19" d="M361.751,353.576a7.279,7.279,0,0,0,2.921-2.944,9.561,9.561,0,0,0,1.06-4.671,8.159,8.159,0,0,0-8.925-8.953h-8.732a.728.728,0,0,0-.562.275,1.032,1.032,0,0,0-.24.706v25.52a1.051,1.051,0,0,0,.24.686.711.711,0,0,0,.562.295h4.141a.759.759,0,0,0,.594-.275,1.032,1.032,0,0,0,.241-.706v-8.717h3.275l3.659,8.638a1.365,1.365,0,0,0,1.317,1.06h4.27a.6.6,0,0,0,.465-.255.872.872,0,0,0,.209-.57,1.148,1.148,0,0,0-.1-.432Zm-2.762-5.241a2.82,2.82,0,0,1-2.247.884H353.05v-6.754h3.692a2.753,2.753,0,0,1,2.264.924,3.825,3.825,0,0,1,.754,2.493A3.609,3.609,0,0,1,358.989,348.335Z" transform="translate(-347.272 -337.008)" fill="#062d57"/>
              </g>
            </g>
            <g id="Group_24" data-name="Group 24" transform="translate(94.564)">
              <g id="Group_23" data-name="Group 23">
                <path id="Path_20" data-name="Path 20" d="M408.585,339.083a10.354,10.354,0,0,0-14.174,0q-2.649,2.808-2.809,7.991-.032,1.139-.032,3.415,0,2.237.032,3.377.16,5.26,2.76,7.969a10.732,10.732,0,0,0,14.255,0q2.6-2.71,2.76-7.969.064-2.277.064-3.377,0-1.138-.064-3.415Q411.249,341.89,408.585,339.083Zm-3.179,14.548A6.523,6.523,0,0,1,404.3,357.6a3.419,3.419,0,0,1-2.809,1.3,3.373,3.373,0,0,1-2.794-1.3,6.739,6.739,0,0,1-1.124-3.965q-.032-1.139-.032-3.219,0-2.122.032-3.221a6.657,6.657,0,0,1,1.139-3.964,3.385,3.385,0,0,1,2.778-1.3,3.43,3.43,0,0,1,2.793,1.3,6.442,6.442,0,0,1,1.124,3.964q.064,2.2.064,3.221Q405.47,351.353,405.406,353.631Z" transform="translate(-391.569 -336.278)" fill="#062d57"/>
              </g>
            </g>
            <g id="Group_25" data-name="Group 25" transform="translate(129.076)">
              <path id="Path_21" data-name="Path 21" d="M470.944,337.435a10.91,10.91,0,0,0-5.072-1.157,9.37,9.37,0,0,0-7.128,2.767q-2.633,2.767-2.793,7.871-.032,1.1-.032,3.533,0,2.4.032,3.456.161,5.182,2.745,7.91a9.4,9.4,0,0,0,7.175,2.729,10.91,10.91,0,0,0,5.072-1.158,8.773,8.773,0,0,0,3.548-3.3,9.661,9.661,0,0,0,1.332-5.005.751.751,0,0,0-.176-.59.649.649,0,0,0-.5-.235h-4.333a.944.944,0,0,0-.675.216,1.611,1.611,0,0,0-.353.8,4.722,4.722,0,0,1-1.381,2.768,3.83,3.83,0,0,1-2.567.845q-3.789,0-3.917-5.183-.032-1.136-.032-3.336t.032-3.259q.128-5.184,3.917-5.184a3.824,3.824,0,0,1,2.536.806,4.992,4.992,0,0,1,1.413,2.807,1.8,1.8,0,0,0,.385.8.893.893,0,0,0,.643.216h4.333a.639.639,0,0,0,.466-.216.735.735,0,0,0,.208-.53v-.079a9.666,9.666,0,0,0-1.332-5.006A8.788,8.788,0,0,0,470.944,337.435Z" transform="translate(-455.919 -336.278)" fill="#062d57"/>
            </g>
            <g id="Group_26" data-name="Group 26" transform="translate(154.76 0.392)">
              <path id="Path_22" data-name="Path 22" d="M519.379,358.563h-9.728V337.989a1.079,1.079,0,0,0-.225-.706.715.715,0,0,0-.578-.275h-4.237a.728.728,0,0,0-.562.275,1.03,1.03,0,0,0-.24.706v25.52a1.048,1.048,0,0,0,.24.686.711.711,0,0,0,.562.295h14.768a.7.7,0,0,0,.578-.295,1.1,1.1,0,0,0,.225-.686v-3.927a1.171,1.171,0,0,0-.225-.726A.7.7,0,0,0,519.379,358.563Z" transform="translate(-503.809 -337.008)" fill="#062d57"/>
            </g>
            <g id="Group_27" data-name="Group 27" transform="translate(175.724 0.392)">
              <path id="Path_23" data-name="Path 23" d="M561.293,337.008H557.12a.731.731,0,0,0-.563.275,1.032,1.032,0,0,0-.24.706v15.98a6.18,6.18,0,0,1-1,3.808,3.768,3.768,0,0,1-5.667.02,6.241,6.241,0,0,1-.979-3.828v-15.98a1.032,1.032,0,0,0-.24-.706.762.762,0,0,0-.594-.275H543.7a.729.729,0,0,0-.562.275,1.03,1.03,0,0,0-.24.706v16.019q0,5.456,2.552,8.165a10.52,10.52,0,0,0,14.094,0q2.552-2.71,2.552-8.165V337.989a1.08,1.08,0,0,0-.225-.706A.715.715,0,0,0,561.293,337.008Z" transform="translate(-542.898 -337.008)" fill="#062d57"/>
            </g>
            <g id="Group_29" data-name="Group 29" transform="translate(201.6 0.392)">
              <g id="Group_28" data-name="Group 28">
                <path id="Path_24" data-name="Path 24" d="M609.283,352.478a5.882,5.882,0,0,0-2.214-2.4,5.72,5.72,0,0,0,1.845-1.982,6.3,6.3,0,0,0,.818-3.318,7.891,7.891,0,0,0-1.974-5.751q-1.974-2.022-6.02-2.022h-9.792a.729.729,0,0,0-.562.275,1.032,1.032,0,0,0-.24.706v25.52a1.051,1.051,0,0,0,.24.686.711.711,0,0,0,.562.295h10.081a7.994,7.994,0,0,0,6.036-2.2,8.465,8.465,0,0,0,2.118-6.125A7.578,7.578,0,0,0,609.283,352.478Zm-12.36-10.365H601.1a2.439,2.439,0,0,1,1.959.785,3.08,3.08,0,0,1,.675,2.08,3.222,3.222,0,0,1-.675,2.14,2.41,2.41,0,0,1-1.959.8h-4.173Zm6.517,16.332a2.465,2.465,0,0,1-2.055.942h-4.462v-6.477h4.462a2.487,2.487,0,0,1,2.055.922,3.623,3.623,0,0,1,.738,2.336A3.579,3.579,0,0,1,603.441,358.445Z" transform="translate(-591.145 -337.008)" fill="#062d57"/>
              </g>
            </g>
          </g>
        </g>
      </g>
    </g>
    <g id="Group_34" data-name="Group 34" transform="translate(439.969 268.719)">
      <path id="Path_25" data-name="Path 25" d="M638.5,338.119v.665h-1.707v5.6h-.818v-5.6h-1.716v-.665Z" transform="translate(-634.255 -338.119)" fill="#072c56"/>
      <path id="Path_26" data-name="Path 26" d="M650.391,338.2v6.217h-.817v-4.636l-2.066,4.636h-.575l-2.076-4.645v4.645h-.817V338.2h.88l2.3,5.139,2.3-5.139Z" transform="translate(-638.792 -338.158)" fill="#072c56"/>
    </g>
  </g>
</svg>
